<?xml version="1.0" encoding="UTF-8"?><svg id="a" xmlns="http://www.w3.org/2000/svg" xmlns:xlink="http://www.w3.org/1999/xlink" viewBox="0 0 1335 703.53"><defs><style>.j{fill:#f5f5f5;}.j,.k,.l,.m,.n,.o,.p,.q,.r{stroke-width:0px;}.k{fill:url(#b);}.l{fill:url(#c);}.m{fill:url(#e);}.n{fill:url(#f);}.o{fill:url(#d);}.p{fill:url(#i);}.q{fill:url(#h);}.r{fill:url(#g);}</style><linearGradient id="b" x1="275.83" y1="177.86" x2="930.04" y2="177.86" gradientUnits="userSpaceOnUse"><stop offset=".57" stop-color="#15202b"/><stop offset="1" stop-color="#375861"/></linearGradient><linearGradient id="c" x1="379.91" y1="552.56" x2="927.47" y2="552.56" xlink:href="#b"/><linearGradient id="d" x1="307.98" y1="67.52" x2="852.56" y2="67.52" xlink:href="#b"/><linearGradient id="e" x1="135.57" y1="33.34" x2="283.83" y2="236.64" gradientUnits="userSpaceOnUse"><stop offset="0" stop-color="#a0cbcf"/><stop offset="1" stop-color="#111b26"/></linearGradient><linearGradient id="f" x1="825.68" y1="-8.07" x2="1039.43" y2="294.16" gradientTransform="translate(1420) rotate(-180) scale(1 -1)" xlink:href="#e"/><linearGradient id="g" x1="355.92" y1="356.54" x2="355.92" y2="703.53" gradientUnits="userSpaceOnUse"><stop offset="0" stop-color="#22333e"/><stop offset=".17" stop-color="#344852"/><stop offset=".49" stop-color="#607c83"/><stop offset="1" stop-color="#2e414b"/></linearGradient><linearGradient id="h" x1="142.23" y1="632.49" x2="142.23" y2="458.25" gradientUnits="userSpaceOnUse"><stop offset="0" stop-color="#1f2e39"/><stop offset="1" stop-color="#375861"/></linearGradient><linearGradient id="i" x1="1386.15" y1="633.67" x2="1386.15" y2="379.11" gradientTransform="translate(1925.37) rotate(-180) scale(1 -1)" gradientUnits="userSpaceOnUse"><stop offset="0" stop-color="#1f2e39"/><stop offset="1" stop-color="#375861"/></linearGradient></defs><path class="k" d="m928.4,308.52c-14.66-146.68-134.4-261.59-284.87-261.59,0,0-52.56,27.28-41.24,26.5,24.39-1.69,31-.9,36.85-.9,136.85,0,249.81,103.02,263.68,236.26l25.58-.26Z"/><path class="l" d="m656.53,627.85c102.98-5.77,190.67-64.74,237.52-150.54l-29.65-.03c-46.83,75.26-130.28,125.48-225.26,125.48-2.51,0-5.02-.04-7.52-.11l6.35,16.09c1.93-.07,15.49,8.93,17.41,8.82"/><path class="j" d="m746.94,426.66c10.69,14.64,30.21,24.17,51.81,24.17,19.75,0,27.88-12.08,27.88-22.31,0-10.92-13.94-16.27-29.74-22.31-21.38-8.13-46.24-17.66-46.24-43.22s22.54-48.1,58.09-48.1c24.4,0,46.7,9.29,59.25,24.86l-17.43,19.29c-10.92-13.71-29.28-20.21-45.54-20.21-14.64,0-25.56,9.29-25.56,19.75,0,9.76,13.48,15.1,29.28,21.14,21.61,8.13,46.93,18.12,46.93,43.91s-21.61,51.35-59.25,51.35c-29.28,0-54.83-11.85-66.92-28.35l17.43-19.98Z"/><path class="j" d="m960.7,401.8c.46-1.86,1.16-5.35,1.16-6.97,0-11.39-9.06-16.03-20.91-16.03s-22.54,7.67-29.97,15.34l-17.19,78.07h-24.4l34.16-154.98h24.4l-12.78,58.09c9.29-8.83,22.07-18.12,38.34-18.12,20.91,0,34.39,10.69,34.39,28.35,0,2.09-.7,6.97-1.16,9.3l-16.96,77.37h-24.4l15.34-70.4Z"/><path class="j" d="m1105.21,359.97h24.4l-24.86,112.22h-24.4l3.25-14.87c-9.3,11.39-20.91,17.66-35.09,17.66-25.56,0-42.98-16.73-42.98-46.24,0-35.09,21.61-71.56,59.02-71.56,16.03,0,29.74,7.2,37.18,18.82l3.49-16.03Zm-46.47,93.4c11.85,0,22.77-6.97,29.28-15.8l9.76-43.45c-5.11-8.6-15.8-15.34-29.51-15.34-22.07,0-37.18,21.61-37.18,45.08,0,18.12,11.39,29.51,27.65,29.51Z"/><path class="j" d="m1161.21,359.97h24.4l-3.72,15.8c10.46-11.62,22.31-18.36,40.66-18.36l-5.35,24.4c-1.63-.47-5.58-1.16-9.99-1.16-11.62,0-23,7.2-29.74,15.57l-16.73,75.98h-24.4l24.86-112.22Z"/><path class="j" d="m1285.51,357.19c29.04,0,49.49,19.52,49.49,49.72,0,6.04-1.16,13.71-2.09,17.19h-86.9l-.23,3.95c0,12.78,11.39,26.95,34.16,26.95,10.22,0,22.07-3.26,29.97-9.3l7.67,16.96c-10.46,7.67-25.33,12.31-39.5,12.31-34.85,0-56.69-19.29-56.69-50.19,0-36.71,27.42-67.61,64.13-67.61Zm27.65,46.47c0-14.41-9.76-26.49-29.51-26.49-17.89,0-32.06,14.17-35.08,29.74h64.36c.23-.7.23-2.33.23-3.26Z"/><path class="o" d="m567.28,66.71c-.03.65-.06,1.29-.09,1.94l13.08-2.26c-4.35,0-8.68.11-12.98.32Z"/><path class="m" d="m18.13,0h139.52C170.33,0,188.09,2.54,203.31,12.68c23.72,15.81,34.25,32.98,34.25,32.98l114.27,163.79-27.9,40.59-124.42-170.13s-10.34-13.96-26.64-26.64c-11.42-8.88-28.45-12.41-40.59-12.68-20.29-.46-81.18,0-81.18,0L18.13,0Z"/><path class="n" d="m682.21,0s-104.64,0-139.52,0c-12.68,0-30.44,2.54-45.66,12.68-23.72,15.81-34.25,32.98-34.25,32.98l-183.86,272.52,42.98,28.07L500.84,79.91s10.34-13.96,26.64-26.64c11.42-8.88,28.45-12.41,40.59-12.68,20.29-.46,81.18,0,81.18,0L682.21,0Z"/><path class="j" d="m55.55,46.93l39.06,39.24c1.86,1.74,3.54,3.66,5.02,5.73l158.05,229.96,34.9-51.7-87.52-123.39s-34.52-53.2-48.05-69.4c-8.05-9.64-13.95-15.22-22.83-20.29-9.47-5.41-19.03-7.61-29.97-8.88-11.77-1.36-48.67-1.27-48.67-1.27Z"/><path class="j" d="m643.53,46.93l-39.06,39.24c-1.86,1.74-3.54,3.66-5.02,5.73l-64,94.53c-2.66,3.92-7.07,6.29-11.81,6.32l-61.26.44,31.64-46.42s34.52-53.2,48.05-69.4c8.05-9.64,13.95-15.22,22.83-20.29,9.47-5.41,19.03-7.61,29.97-8.88,11.77-1.36,48.67-1.27,48.67-1.27Z"/><path class="r" d="m658.66,634.68c-108.17,0-113.35-6.18-210.63-143.82l-92.11-134.32-92.11,134.32c-97.28,137.64-102.46,143.82-210.63,143.82L0,699.69c8.88,0,179.11,29.43,246.03-74.67,30.71-47.77,102.27-149.95,111.08-162.51,5.12,7.52,77.11,113.39,108.69,162.51,66.92,104.1,237.16,74.67,246.03,74.67l-53.18-65.01Z"/><path class="q" d="m156.45,590.51c-7.96,9.71-18.5,22.04-27.33,27.19-9.42,5.5-22.05,8.78-32.98,10.15-11.76,1.47-38.05,0-38.05,0l36.78-39.32c1.84-1.76,16.3-20.75,17.76-22.83l66.49-98.4,3.17,23.56h44.09s-69.94,99.65-69.94,99.65Z"/><path class="p" d="m656.53,627.85l-36.78-39.32c-1.84-1.76-16.3-20.75-17.76-22.83l-115.5-173.37-64.57.04,136.25,198.14c7.96,9.71,18.5,22.04,27.33,27.19,9.42,5.5,22.05,8.78,32.98,10.15h38.05Z"/><path class="j" d="m433.91,326.32s23.18.71,31.06.71c29.07,0,28.36-.11,42.92-.11,19.03,0,32.17-10.07,32.17-34.96s-19.03-34.48-46.93-34.48h-65.96c-11.46,0-33.61-1.9-45.66,10.15-12.68,12.68-31.02,42.71-51.91,72.43l-.09-.14-8.58,12.56-20.63,30.2c-24.64,36.06-49.28,72.12-73.92,108.18h-44.09s-3.17-23.56-3.17-23.56c0,0,135.18-202.21,138.98-207.28,3.81-5.07,14.45-19.82,24.1-30.44,12.68-13.95,34.25-26.64,52-26.64l106.98-1.27c10.97,0,48.49-2.04,75.66,26.64,22.83,24.1,26.64,44.39,26.64,59.61,0,19.03-2.62,48.1-30.44,72.3-29.17,25.37-59.61,22.83-59.61,22.83l-97.84.23-39.75-56.67"/></svg>