<?xml version="1.0" encoding="utf-8"?>
<!-- Generator: Adobe Illustrator 27.9.0, SVG Export Plug-In . SVG Version: 6.00 Build 0)  -->
<svg version="1.1" id="a" xmlns="http://www.w3.org/2000/svg" xmlns:xlink="http://www.w3.org/1999/xlink" x="0px" y="0px"
     viewBox="0 0 720 720" style="enable-background:new 0 0 720 720;" xml:space="preserve">
<style type="text/css">
	.st0{fill:url(#SVGID_1_);}
	.st1{fill:url(#SVGID_00000100359396298490408900000008795465446466110116_);}
	.st2{fill:url(#SVGID_00000111875858894357471030000012234825832546241445_);}
	.st3{fill:#F5F5F5;}
	.st4{fill:url(#SVGID_00000089547014164898192090000013794764980067696526_);}
	.st5{fill:url(#SVGID_00000096050939445001297870000005708731498653887645_);}
	.st6{fill:url(#SVGID_00000139288663935731568110000006196045263916138684_);}
</style>
  <linearGradient id="SVGID_1_" gradientUnits="userSpaceOnUse" x1="311.98" y1="646.715" x2="856.5599" y2="646.715" gradientTransform="matrix(1 0 0 -1 0 722.47)">
	<stop  offset="0.57" style="stop-color:#15202B"/>
    <stop  offset="1" style="stop-color:#375861"/>
</linearGradient>
  <path class="st0" d="M571.3,74.9c0,0.7-0.1,1.3-0.1,1.9l13.1-2.3C579.9,74.6,575.6,74.7,571.3,74.9L571.3,74.9z"/>
  <linearGradient id="SVGID_00000016755954586573721660000009076875085368753796_" gradientUnits="userSpaceOnUse" x1="139.57" y1="680.895" x2="287.83" y2="477.595" gradientTransform="matrix(1 0 0 -1 0 722.47)">
	<stop  offset="0" style="stop-color:#A0CBCF"/>
    <stop  offset="1" style="stop-color:#111B26"/>
</linearGradient>
  <path style="fill:url(#SVGID_00000016755954586573721660000009076875085368753796_);" d="M22.1,8.2h139.5c12.7,0,30.4,2.5,45.7,12.7
	c23.7,15.8,34.2,33,34.2,33l114.3,163.8l-27.9,40.6L203.5,88.1c0,0-10.3-14-26.6-26.6c-11.4-8.9-28.4-12.4-40.6-12.7
	c-20.3-0.5-81.2,0-81.2,0L22.1,8.2z"/>
  <linearGradient id="SVGID_00000116210093787512709060000013834629872244143755_" gradientUnits="userSpaceOnUse" x1="237.6833" y1="722.3073" x2="451.4333" y2="420.0773" gradientTransform="matrix(-1 0 0 -1 836 722.47)">
	<stop  offset="0" style="stop-color:#A0CBCF"/>
    <stop  offset="1" style="stop-color:#111B26"/>
</linearGradient>
  <path style="fill:url(#SVGID_00000116210093787512709060000013834629872244143755_);" d="M686.2,8.2c0,0-104.6,0-139.5,0
	c-12.7,0-30.4,2.5-45.7,12.7c-23.7,15.8-34.2,33-34.2,33L282.9,326.4l43,28.1L504.8,88.1c0,0,10.3-14,26.6-26.6
	c11.4-8.9,28.5-12.4,40.6-12.7c20.3-0.5,81.2,0,81.2,0L686.2,8.2z"/>
  <path class="st3" d="M59.5,55.2l39.1,39.2c1.9,1.7,3.5,3.7,5,5.7l158,230l34.9-51.7L209.1,155c0,0-34.5-53.2-48.1-69.4
	c-8.1-9.6-13.9-15.2-22.8-20.3c-9.5-5.4-19-7.6-30-8.9C96.4,55.1,59.5,55.2,59.5,55.2L59.5,55.2z"/>
  <path class="st3" d="M647.5,55.2l-39.1,39.2c-1.9,1.7-3.5,3.7-5,5.7l-64,94.5c-2.7,3.9-7.1,6.3-11.8,6.3l-61.3,0.4L498,155
	c0,0,34.5-53.2,48-69.4c8-9.6,14-15.2,22.8-20.3c9.5-5.4,19-7.6,30-8.9C610.6,55.1,647.5,55.2,647.5,55.2L647.5,55.2z"/>
  <linearGradient id="SVGID_00000013189913603216735760000006839212695859179397_" gradientUnits="userSpaceOnUse" x1="359.915" y1="357.695" x2="359.915" y2="10.7055" gradientTransform="matrix(1 0 0 -1 0 722.47)">
	<stop  offset="0" style="stop-color:#22333E"/>
    <stop  offset="0.17" style="stop-color:#344852"/>
    <stop  offset="0.49" style="stop-color:#607C83"/>
    <stop  offset="1" style="stop-color:#2E414B"/>
</linearGradient>
  <path style="fill:url(#SVGID_00000013189913603216735760000006839212695859179397_);" d="M662.7,642.9
	c-108.2,0-113.3-6.2-210.6-143.8l-92.1-134.3l-92.1,134.3C170.5,636.7,165.4,642.9,57.2,642.9L4,707.9c8.9,0,179.1,29.4,246-74.7
	c30.7-47.8,102.3-150,111.1-162.5c5.1,7.5,77.1,113.4,108.7,162.5c66.9,104.1,237.2,74.7,246,74.7L662.7,642.9L662.7,642.9z"/>
  <linearGradient id="SVGID_00000092419044801275476550000015674219126107926964_" gradientUnits="userSpaceOnUse" x1="146.235" y1="81.745" x2="146.235" y2="255.985" gradientTransform="matrix(1 0 0 -1 0 722.47)">
	<stop  offset="0" style="stop-color:#1F2E39"/>
    <stop  offset="1" style="stop-color:#375861"/>
</linearGradient>
  <path style="fill:url(#SVGID_00000092419044801275476550000015674219126107926964_);" d="M160.4,598.7c-8,9.7-18.5,22-27.3,27.2
	c-9.4,5.5-22.1,8.8-33,10.2c-11.8,1.5-38,0-38,0l36.8-39.3c1.8-1.8,16.3-20.8,17.8-22.8l66.5-98.4l3.2,23.6h44.1L160.4,598.7
	L160.4,598.7z"/>
  <linearGradient id="SVGID_00000004541377575092618730000016818176591742569138_" gradientUnits="userSpaceOnUse" x1="798.145" y1="80.565" x2="798.145" y2="335.125" gradientTransform="matrix(-1 0 0 -1 1341.37 722.47)">
	<stop  offset="0" style="stop-color:#1F2E39"/>
    <stop  offset="1" style="stop-color:#375861"/>
</linearGradient>
  <path style="fill:url(#SVGID_00000004541377575092618730000016818176591742569138_);" d="M660.5,636.1l-36.8-39.3
	c-1.8-1.8-16.3-20.8-17.8-22.8L490.5,400.6l-64.6,0l136.2,198.1c8,9.7,18.5,22,27.3,27.2c9.4,5.5,22,8.8,33,10.2H660.5L660.5,636.1z
	"/>
  <path class="st3" d="M437.9,334.6c0,0,23.2,0.7,31.1,0.7c29.1,0,28.4-0.1,42.9-0.1c19,0,32.2-10.1,32.2-35s-19-34.5-46.9-34.5h-66
	c-11.5,0-33.6-1.9-45.7,10.1c-12.7,12.7-31,42.7-51.9,72.4l-0.1-0.1l-8.6,12.6l-20.6,30.2C279.7,427,255,463,230.4,499.1h-44.1
	l-3.2-23.6c0,0,135.2-202.2,139-207.3c3.8-5.1,14.5-19.8,24.1-30.4c12.7-13.9,34.2-26.6,52-26.6l107-1.3c11,0,48.5-2,75.7,26.6
	c22.8,24.1,26.6,44.4,26.6,59.6c0,19-2.6,48.1-30.4,72.3c-29.2,25.4-59.6,22.8-59.6,22.8l-97.8,0.2l-39.8-56.7"/>
</svg>
