<?xml version="1.0" encoding="UTF-8"?>
<svg version="1.1" xmlns="http://www.w3.org/2000/svg" width="648" height="407">
<path d="M0 0 C213.84 0 427.68 0 648 0 C648 134.31 648 268.62 648 407 C434.16 407 220.32 407 0 407 C0 272.69 0 138.38 0 0 Z " fill="#192731" transform="translate(0,0)"/>
<path d="M0 0 C3.47639231 -0.06750937 6.95254822 -0.11454875 10.42944336 -0.14663696 C12.40000597 -0.16698244 14.37042894 -0.19966962 16.34082031 -0.23266602 C29.53015172 -0.27867935 39.29464767 2.76220107 49.01074219 11.77001953 C56.67205448 19.70279565 59.20070736 28.52543645 59.10058594 39.30517578 C58.29021675 50.3421759 53.55654696 58.78504852 45.63574219 66.27001953 C34.20730684 75.56514695 20.59597545 75.60604137 6.60327148 75.98193359 C4.63267815 76.04872787 2.66283897 76.14422962 0.69506836 76.26904297 C-15.19234947 77.25443306 -15.19234947 77.25443306 -20.11578369 73.67138672 C-23.47215642 70.2107863 -25.85143089 66.29077932 -28.0843811 62.04248047 C-29.23806762 59.97251643 -30.54532685 58.1188096 -31.95483398 56.21533203 C-34.17675781 53.08251953 -34.17675781 53.08251953 -34.17675781 51.08251953 C-33.46123245 51.07665329 -32.74570709 51.07078705 -32.00849915 51.06474304 C-25.25513355 51.00676489 -18.50208246 50.93465917 -11.74903584 50.84680462 C-8.27745715 50.8021358 -4.80599487 50.76287246 -1.33422852 50.73608398 C2.65996779 50.70502498 6.65353587 50.65023765 10.64746094 50.59423828 C11.89033371 50.58784836 13.13320648 50.58145844 14.41374207 50.57487488 C15.57456802 50.55508072 16.73539398 50.53528656 17.93139648 50.51489258 C19.46028755 50.49823799 19.46028755 50.49823799 21.02006531 50.48124695 C24.29266432 50.01574833 26.16887439 49.02726867 28.82324219 47.08251953 C31.7187465 42.68934057 32.38202585 39.2978337 31.82324219 34.08251953 C30.53473156 29.97539192 29.07745145 27.93061591 25.34472656 25.93994141 C20.40810808 23.59736522 15.87089336 23.50371296 10.47949219 23.55126953 C9.02669861 23.54552917 9.02669861 23.54552917 7.54455566 23.53967285 C5.50739495 23.53696441 3.47019883 23.54425036 1.43310547 23.56103516 C-1.66811358 23.58245981 -4.76701625 23.56119669 -7.86816406 23.53564453 C-9.85645038 23.538288 -11.84473526 23.54341336 -13.83300781 23.55126953 C-14.75094116 23.54317261 -15.66887451 23.53507568 -16.61462402 23.5267334 C-23.78352794 23.63009454 -29.37132758 25.21017954 -34.46972656 30.43017578 C-35.09492188 31.32607422 -35.72011719 32.22197266 -36.36425781 33.14501953 C-37.11578125 34.20720703 -37.86730469 35.26939453 -38.64160156 36.36376953 C-39.48784615 37.60253907 -40.33281343 38.84218178 -41.17675781 40.08251953 C-42.17749691 41.53082537 -43.17883091 42.97872027 -44.18066406 44.42626953 C-46.96831205 48.46978333 -49.73059256 52.53007954 -52.48730469 56.59472656 C-55.20606902 60.5982249 -57.94205354 64.58990085 -60.67675781 68.58251953 C-61.76277701 70.16970321 -62.84871445 71.75694284 -63.93457031 73.34423828 C-66.07470569 76.47217788 -68.21536593 79.59975729 -70.35644531 82.72705078 C-70.88197998 83.49686279 -71.40751465 84.2666748 -71.94897461 85.05981445 C-73.0154382 86.6136186 -74.08981745 88.16202001 -75.17211914 89.70483398 C-78.22982814 94.09059746 -81.04132169 98.52609025 -83.69628906 103.16845703 C-92.43833035 117.972241 -92.43833035 117.972241 -97.58056641 120.05712891 C-102.96473198 121.01496454 -107.90712906 120.39112445 -113.17675781 119.08251953 C-114.79205722 117.46722013 -114.7329231 115.89051161 -114.98925781 113.64501953 C-114.85072351 107.42855132 -112.48225571 103.89370647 -109.01660156 98.99267578 C-107.91392253 97.38749142 -106.81130459 95.78226509 -105.70874023 94.17700195 C-105.12885345 93.3423642 -104.54896667 92.50772644 -103.95150757 91.64779663 C-100.99975574 87.38124505 -98.11717808 83.06833775 -95.22363281 78.76220703 C-94.0233224 76.98319947 -92.82246942 75.20455788 -91.62109375 73.42626953 C-91.01680542 72.53166016 -90.41251709 71.63705078 -89.78991699 70.71533203 C-88.52865507 68.84843632 -87.26734173 66.98157535 -86.00598145 65.11474609 C-76.97781825 51.76168127 -76.97781825 51.76168127 -68.05175781 38.34033203 C-67.33536133 37.25510254 -66.61896484 36.16987305 -65.88085938 35.05175781 C-64.64301951 33.17087221 -63.40998622 31.28680708 -62.18359375 29.3984375 C-54.78794524 18.16029585 -45.86861193 4.90443165 -32.17675781 1.08251953 C-28.01453275 0.57179386 -23.86690277 0.47565543 -19.67675781 0.39501953 C-18.46584473 0.36375977 -17.25493164 0.3325 -16.00732422 0.30029297 C-12.74523018 0.22445939 -9.48341525 0.16435272 -6.2208252 0.11505127 C-4.1470836 0.08204726 -2.07358373 0.04169372 0 0 Z " fill="#F2F2F2" transform="translate(229.1767578125,153.91748046875)"/>
<path d="M0 0 C0.64461182 -0.00029205 1.28922363 -0.00058411 1.95336914 -0.00088501 C4.06361814 0.00049763 6.17350483 0.01600768 8.28369141 0.03173828 C9.75485033 0.03547222 11.22601176 0.03831739 12.69717407 0.04031372 C16.55396488 0.04792023 20.41060312 0.06754278 24.26733398 0.08972168 C28.20896339 0.11024465 32.15061763 0.11932919 36.09228516 0.12939453 C43.81501068 0.15079175 51.53761085 0.18489129 59.26025391 0.22705078 C58.65692734 1.00724075 58.65692734 1.00724075 58.04141235 1.80319214 C54.67214629 6.20393602 54.67214629 6.20393602 51.82421875 10.94628906 C50.24877162 13.80213936 48.9566102 15.3502056 46.26025391 17.22705078 C39.99659916 18.80075005 33.28610848 18.26073037 26.88525391 18.10205078 C24.24284855 18.06819859 21.60120445 18.0474214 18.95858765 18.04202271 C17.32105325 18.03537736 15.68345304 18.01111411 14.04653931 17.96554565 C4.81134898 17.85271626 -3.08487616 20.7520422 -9.73974609 27.22705078 C-15.39049956 33.88466577 -20.14316572 41.2306872 -24.9362793 48.515625 C-27.79268106 52.84959006 -30.75628251 57.08707936 -33.80224609 61.28955078 C-38.72740453 68.09387953 -43.26754267 75.11905597 -47.73974609 82.22705078 C-43.77974609 82.22705078 -39.81974609 82.22705078 -35.73974609 82.22705078 C-35.73974609 82.55705078 -35.73974609 82.88705078 -35.73974609 83.22705078 C-36.93349854 83.23321411 -36.93349854 83.23321411 -38.15136719 83.23950195 C-41.80654798 83.27268261 -45.46011586 83.34335669 -49.11474609 83.41455078 C-50.36642578 83.42035156 -51.61810547 83.42615234 -52.90771484 83.43212891 C-61.06652631 83.62435221 -66.80115775 84.90924359 -73.73974609 89.22705078 C-74.72974609 89.72205078 -74.72974609 89.72205078 -75.73974609 90.22705078 C-76.39974609 89.56705078 -77.05974609 88.90705078 -77.73974609 88.22705078 C-77.13130859 87.35048828 -76.52287109 86.47392578 -75.89599609 85.57080078 C-70.28781978 77.46536164 -64.76568281 69.30573288 -59.30224609 61.10205078 C-58.30825806 59.6119751 -58.30825806 59.6119751 -57.29418945 58.09179688 C-53.81339737 52.86755293 -50.34697547 47.63474309 -46.90614319 42.38412476 C-45.14267929 39.69562607 -43.37267089 37.01146711 -41.60202026 34.32769775 C-40.74893699 33.03101759 -39.89883725 31.73236864 -39.05203247 30.43157959 C-29.61453504 15.93870918 -19.06188263 -0.07303403 0 0 Z " fill="#6D8C93" transform="translate(260.73974609375,71.77294921875)"/>
<path d="M0 0 C3.2914911 -0.08857863 6.58266805 -0.1409104 9.875 -0.1875 C10.7928125 -0.21263672 11.710625 -0.23777344 12.65625 -0.26367188 C22.73695129 -0.37015816 31.35892604 1.74755953 38.87109375 8.7421875 C45.76731669 15.85352198 50.9148005 24.16353755 56.3203125 32.41796875 C64.11479282 44.30774908 72.42458938 55.85338027 80.75 67.375 C81.27932129 68.11089355 81.80864258 68.84678711 82.35400391 69.60498047 C84.89272398 73.12638001 87.45990379 76.61658687 90.10546875 80.05859375 C90.58467773 80.6942627 91.06388672 81.32993164 91.55761719 81.98486328 C92.45081533 83.16789252 93.35825713 84.34035617 94.28222656 85.49951172 C95.46484375 87.08203125 95.46484375 87.08203125 97 90 C96.16769479 94.84977845 92.31955064 99.29015363 89.5625 103.3125 C89.07201172 104.05306641 88.58152344 104.79363281 88.07617188 105.55664062 C87.59857422 106.25595703 87.12097656 106.95527344 86.62890625 107.67578125 C86.19650635 108.31427002 85.76410645 108.95275879 85.31860352 109.6105957 C84.88346436 110.06909912 84.4483252 110.52760254 84 111 C83.01 111 82.02 111 81 111 C79.42871094 109.23779297 79.42871094 109.23779297 77.734375 106.7421875 C76.78147583 105.35495483 76.78147583 105.35495483 75.80932617 103.93969727 C74.78995972 102.42267212 74.78995972 102.42267212 73.75 100.875 C73.04270752 99.83980225 72.33541504 98.80460449 71.60668945 97.73803711 C69.39548406 94.49803259 67.1977177 91.24916324 65 88 C63.66659015 86.04473657 62.33200347 84.09027503 60.99609375 82.13671875 C58.48110091 78.45751936 55.97060601 74.77533591 53.46484375 71.08984375 C49.10368222 64.67806192 44.70909513 58.28948323 40.31054688 51.90332031 C38.50045062 49.27449944 36.69211863 46.64447076 34.88525391 44.01342773 C33.96285156 42.67274178 33.03804962 41.33370356 32.11083984 39.99633789 C29.83635869 36.70977279 27.6070101 33.40719983 25.4609375 30.03515625 C18.66016319 19.50488334 10.49734046 11.00571123 1.38598633 2.42016602 C0 1 0 1 0 0 Z " fill="#F2F2F2" transform="translate(64,91)"/>
<path d="M0 0 C2.48281628 1.42629871 4.74670579 2.84723286 6.9375 4.6875 C7.5975 3.0375 8.2575 1.3875 8.9375 -0.3125 C12.8975 -0.3125 16.8575 -0.3125 20.9375 -0.3125 C19.32059399 10.11696704 17.13053452 20.38250785 14.875 30.6875 C14.50691092 32.381456 14.13907071 34.07546609 13.77148438 35.76953125 C11.12672776 47.93058894 11.12672776 47.93058894 9.9375 52.6875 C5.9775 52.6875 2.0175 52.6875 -2.0625 52.6875 C-2.0625 51.0375 -2.0625 49.3875 -2.0625 47.6875 C-3.01125 48.491875 -3.96 49.29625 -4.9375 50.125 C-9.10599799 53.65916134 -11.7709498 53.89677505 -17.3125 54 C-18.61703125 54.03738281 -19.9215625 54.07476562 -21.265625 54.11328125 C-26.95571642 53.47519487 -29.89717561 50.87930903 -33.8125 46.875 C-38.39985519 40.37624682 -38.86712757 33.41803578 -38.0625 25.6875 C-35.84786535 15.30391358 -31.2124578 7.23613132 -22.4375 1.125 C-15.59118379 -2.63786082 -7.27369804 -2.9032357 0 0 Z " fill="#EFF0F0" transform="translate(477.0625,214.3125)"/>
<path d="M0 0 C4.1648493 -0.32172291 8.32649917 -0.51546597 12.5 -0.6875 C13.67304688 -0.77966797 14.84609375 -0.87183594 16.0546875 -0.96679688 C24.58778632 -1.23046004 24.58778632 -1.23046004 28.28393555 1.98999023 C30.41488531 4.89174887 32.20129031 7.88173193 34 11 C35.13393229 12.71584091 36.30126914 14.40511561 37.47421265 16.09448242 C38.73356685 17.90933412 39.97224143 19.7367935 41.20605469 21.5690918 C42.98971325 24.21654879 44.77523185 26.86271812 46.56347656 29.50708008 C50.27286711 34.99345825 53.97771882 40.48289162 57.67919922 45.97460938 C59.80016952 49.1212865 61.92394985 52.26605119 64.04940796 55.40969849 C65.20822719 57.12564405 66.36356966 58.84389226 67.51879883 60.56225586 C74.55837317 70.9740908 81.73336642 81.08921539 90.5 90.125 C91.72070294 91.39656556 92.93955206 92.66991422 94.15625 93.9453125 C94.94225586 94.75766357 94.94225586 94.75766357 95.74414062 95.58642578 C97 97 97 97 98 99 C74.25042792 99.69851683 74.25042792 99.69851683 65.6875 92.9375 C58.72746499 86.22082286 53.48139046 77.91592854 48 70 C46.7246384 68.17400399 45.44857945 66.34849487 44.171875 64.5234375 C40.78600865 59.67531189 37.41522282 54.81688831 34.04833984 49.95556641 C31.3669268 46.08653348 28.67861162 42.22232855 25.98950195 38.35864258 C24.67111823 36.46430523 23.35324082 34.56961541 22.03588867 32.67456055 C18.89277308 28.15334256 15.7462817 23.63457572 12.58935547 19.12298584 C11.45467876 17.50111725 10.321081 15.87849398 9.1875 14.25585938 C7.75189449 12.20114899 6.31445416 10.14771912 4.875 8.09570312 C4.235625 7.17982422 3.59625 6.26394531 2.9375 5.3203125 C2.36902344 4.50836426 1.80054688 3.69641602 1.21484375 2.85986328 C0 1 0 1 0 0 Z " fill="#283E48" transform="translate(211,229)"/>
<path d="M0 0 C3.1771317 1.88387617 5.79000675 3.87136073 8.4375 6.4453125 C7.84466379 9.83723613 6.67006811 11.6560882 4.375 14.1953125 C3.82714844 14.80890625 3.27929688 15.4225 2.71484375 16.0546875 C2.29332031 16.51359375 1.87179687 16.9725 1.4375 17.4453125 C0.89222656 17.04699219 0.34695313 16.64867187 -0.21484375 16.23828125 C-7.84151472 10.880056 -15.0884359 7.35812482 -24.5625 8.4453125 C-27.21933189 9.94279957 -29.40902751 11.29184001 -31.5625 13.4453125 C-32.31494501 16.2729114 -32.31494501 16.2729114 -31.5625 19.4453125 C-26.74506364 23.35947954 -21.22797098 25.47555878 -15.5625 27.8828125 C-8.44252183 30.91283425 -2.16095836 33.79123043 2.4375 40.2578125 C4.43087584 46.61169799 4.14906411 51.54451999 1.375 57.6328125 C-2.41123923 64.48207673 -7.05683715 68.2259292 -14.35717773 70.84106445 C-18.05256237 71.85358266 -21.62638439 71.8913499 -25.4375 71.8203125 C-26.22761475 71.81016113 -27.01772949 71.80000977 -27.83178711 71.78955078 C-39.26115745 71.48645925 -48.57106644 67.86262183 -56.5625 59.4453125 C-54.89498852 55.50392172 -52.33539351 52.6560313 -49.5625 49.4453125 C-46.55185399 50.86208709 -43.90879459 52.53563209 -41.1875 54.4453125 C-34.10744214 59.15768867 -28.01407161 60.26158613 -19.5625 59.4453125 C-16.14222777 58.24521698 -14.32079845 57.47935584 -12.1875 54.5703125 C-11.15365353 51.05666392 -11.15365353 51.05666392 -11.5625 47.4453125 C-17.39335951 42.66121634 -23.64289736 40.1694677 -30.62304688 37.484375 C-36.84547718 34.99739246 -41.51253568 32.38359469 -45.4375 26.7578125 C-47.36720777 21.07589519 -47.40239208 15.78816934 -45.375 10.1328125 C-35.12307683 -5.06831496 -15.92787136 -7.74271524 0 0 Z " fill="#F1F1F1" transform="translate(365.5625,196.5546875)"/>
<path d="M0 0 C6.29588847 3.88177873 9.1242609 8.49778271 11.4375 15.4375 C11.4375 20.0575 11.4375 24.6775 11.4375 29.4375 C-2.4225 29.4375 -16.2825 29.4375 -30.5625 29.4375 C-28.27266056 37.91978275 -28.27266056 37.91978275 -22.5625 42.4375 C-14.77344429 45.0338519 -6.96958949 43.51007046 0.4375 40.4375 C2 43.25 2 43.25 3.4375 46.4375 C2.4375 49.4375 2.4375 49.4375 0.71484375 50.60546875 C-7.97750944 54.39295486 -18.97437385 55.29135881 -28.125 52.3125 C-34.8636686 48.63686258 -39.27969551 45.01667494 -41.5625 37.4375 C-42.00262346 34.65243415 -42.08765439 31.94165509 -42.0625 29.125 C-42.05677979 28.37879395 -42.05105957 27.63258789 -42.04516602 26.86376953 C-41.77749563 18.55607399 -38.90742696 12.77359773 -33.375 6.625 C-24.28517658 -1.58893037 -11.7333571 -5.17979296 0 0 Z " fill="#F0F0F1" transform="translate(583.5625,214.5625)"/>
<path d="M0 0 C0.95648438 0.01353516 1.91296875 0.02707031 2.8984375 0.04101562 C5.2245811 0.07590778 7.5494653 0.12491661 9.875 0.1875 C5.49942129 5.44066653 0.84458066 10.17911693 -4.1484375 14.85546875 C-9.99593342 20.98833135 -14.27596247 28.47577842 -18.20617676 35.93147278 C-30.09929646 58.35795325 -30.09929646 58.35795325 -38.88330078 61.55566406 C-47.24435819 63.09723583 -55.87352968 61.86288183 -64.125 60.1875 C-61.29208159 55.10052449 -58.24559303 50.23974431 -54.984375 45.41796875 C-54.49849915 44.69692459 -54.01262329 43.97588043 -53.51202393 43.23298645 C-52.48799006 41.71524028 -51.46263914 40.19838198 -50.43603516 38.68237305 C-48.88858129 36.39507456 -47.3483893 34.10300553 -45.80859375 31.81054688 C-23.91543474 -0.65498733 -23.91543474 -0.65498733 0 0 Z " fill="#F1F1F1" transform="translate(294.125,90.8125)"/>
<path d="M0 0 C3.96 0 7.92 0 12 0 C10.67884756 8.43505019 9.0075509 16.70212294 7 25 C7.57105469 24.566875 8.14210938 24.13375 8.73046875 23.6875 C15.78619705 18.8415944 21.53724844 17.87012663 30 19 C34.7122649 20.57075497 37.57991917 22.6252385 40 27 C41.30176224 35.84175104 38.54245962 44.8173351 36.5625 53.375 C36.23275837 54.83702214 35.90397543 56.29926085 35.57617188 57.76171875 C34.43027471 62.85298657 33.26575454 67.93698183 32 73 C28.04 73 24.08 73 20 73 C25 48 25 48 25.56835938 45.30859375 C26.08193865 42.56175799 26.096139 39.97953697 26.0625 37.1875 C26.05347656 36.21167969 26.04445313 35.23585937 26.03515625 34.23046875 C26.02355469 33.49441406 26.01195312 32.75835937 26 32 C21.0669003 29.29931849 16.9962772 29.22596172 11.65625 30.60546875 C7.94348813 32.31952715 5.70504229 34.19948878 4.18261719 38.08740234 C2.59974028 43.40471212 1.55927979 48.83006376 0.53515625 54.27783203 C-0.26136536 58.32948164 -1.27874303 62.31604052 -2.3125 66.3125 C-2.64262261 67.62091846 -2.97212554 68.92949355 -3.30078125 70.23828125 C-3.53152344 71.14964844 -3.76226562 72.06101562 -4 73 C-7.96 73 -11.92 73 -16 73 C-13.70431437 59.99614917 -10.95809886 47.11659337 -8 34.25 C-7.74923706 33.15901505 -7.74923706 33.15901505 -7.4934082 32.04598999 C-5.03185036 21.35551651 -2.51932578 10.67698307 0 0 Z " fill="#EFF0F0" transform="translate(391,194)"/>
<path d="M0 0 C0.33 0 0.66 0 1 0 C1.495 4.95 1.495 4.95 2 10 C7.61 10.33 13.22 10.66 19 11 C17.56361056 13.87277888 16.20727178 16.29605318 14.41796875 18.9140625 C13.64755249 20.04279785 13.64755249 20.04279785 12.86157227 21.19433594 C12.03290649 22.39751465 12.03290649 22.39751465 11.1875 23.625 C10.61507568 24.45805664 10.04265137 25.29111328 9.45288086 26.14941406 C5.37789905 32.05582962 1.24861622 37.92184987 -2.9375 43.75 C-3.45610596 44.47525879 -3.97471191 45.20051758 -4.5090332 45.94775391 C-13.73092113 58.69735873 -13.73092113 58.69735873 -18.9375 61.8125 C-19.54464844 62.19019531 -20.15179688 62.56789063 -20.77734375 62.95703125 C-27.00601251 65.87979849 -32.70481011 66.26605555 -39.4375 66.125 C-40.67790039 66.11146484 -40.67790039 66.11146484 -41.94335938 66.09765625 C-43.96236708 66.07431512 -45.98122356 66.03845288 -48 66 C-45.03512001 61.77729214 -42.01730562 57.91259186 -38.25 54.375 C-27.55320486 43.9639971 -19.91988205 29.93327458 -11.75390625 17.578125 C-10.35677083 15.46875 -8.95963542 13.359375 -7.5625 11.25 C-6.48452148 9.61417969 -6.48452148 9.61417969 -5.38476562 7.9453125 C-4.70220703 6.91664063 -4.01964844 5.88796875 -3.31640625 4.828125 C-2.70224854 3.8990332 -2.08809082 2.96994141 -1.45532227 2.01269531 C-0.73493774 1.01641113 -0.73493774 1.01641113 0 0 Z " fill="#29404A" transform="translate(114,262)"/>
<path d="M0 0 C3.04888832 1.22873259 5.70435267 2.62822151 8 5 C9.98960541 9.85536734 8.15980079 14.71496141 6.875 19.5625 C6.67390625 20.41263672 6.4728125 21.26277344 6.265625 22.13867188 C4.92545951 27.28539177 3.75647647 30.12802293 -1 33 C-5.21391349 35.27779108 -9.30522566 35.60946361 -14 35 C-17.02764021 33.72166302 -18.61952082 32.41983909 -20.8125 30 C-23.3205272 23.66393128 -22.86272772 16.11436205 -20.19140625 9.85546875 C-15.34341147 2.30531294 -8.78470372 -1.2410137 0 0 Z " fill="#1A2630" transform="translate(474,223)"/>
<path d="M0 0 C-0.875 7.625 -0.875 7.625 -2 11 C-2.65226563 11.02578125 -3.30453125 11.0515625 -3.9765625 11.078125 C-9.71272821 11.45038354 -13.52875703 12.07403056 -18 16 C-20.68773354 19.83029577 -21.77156698 23.39953186 -22.7890625 27.9453125 C-22.9378183 28.59700409 -23.0865741 29.24869568 -23.23983765 29.9201355 C-23.70986203 31.98665135 -24.16781474 34.05560977 -24.625 36.125 C-25.09186964 38.20088532 -25.56119778 40.27619714 -26.03158569 42.35128784 C-26.45574718 44.22820462 -26.87378445 46.10650229 -27.29150391 47.98486328 C-28 51 -28 51 -29 54 C-32.96 54 -36.92 54 -41 54 C-38.73674819 42.30418939 -36.31471297 30.64457117 -33.78762817 19.00317383 C-33.47033569 17.54023315 -33.15432009 16.07701497 -32.83956909 14.61352539 C-32.3929729 12.53967234 -31.94137474 10.46697317 -31.48828125 8.39453125 C-31.22571533 7.18643799 -30.96314941 5.97834473 -30.69262695 4.73364258 C-30 2 -30 2 -29 1 C-26.98035801 0.92755947 -24.95832876 0.91622812 -22.9375 0.9375 C-21.83277344 0.94652344 -20.72804688 0.95554688 -19.58984375 0.96484375 C-18.73519531 0.97644531 -17.88054688 0.98804688 -17 1 C-17.33 2.65 -17.66 4.3 -18 6 C-17.46890625 5.65066406 -16.9378125 5.30132812 -16.390625 4.94140625 C-15.68421875 4.48636719 -14.9778125 4.03132812 -14.25 3.5625 C-13.55390625 3.11003906 -12.8578125 2.65757812 -12.140625 2.19140625 C-8.09968072 -0.05765945 -4.5780402 -0.10404637 0 0 Z " fill="#EEEFEF" transform="translate(542,213)"/>
<path d="M0 0 C1.010625 -0.00773438 2.02125 -0.01546875 3.0625 -0.0234375 C7.49002136 0.57710396 10.11860428 2.22006767 12.8125 5.75 C14 8.375 14 8.375 14 13.375 C4.1 13.375 -5.8 13.375 -16 13.375 C-14.86961709 7.72308546 -13.39780096 5.09480207 -8.734375 1.75 C-5.58384795 0.16573497 -3.50867968 -0.02685214 0 0 Z " fill="#1A2631" transform="translate(571,222.625)"/>
</svg>
