<?xml version="1.0" encoding="UTF-8"?>
<svg id="Ebene_20" data-name="Ebene 20" xmlns="http://www.w3.org/2000/svg" xmlns:xlink="http://www.w3.org/1999/xlink" viewBox="0 0 741.79 820.5">
  <defs>
    <style>
      .cls-1 {
      fill: url(#Unbenannter_Verlauf_16-6);
      }

      .cls-1, .cls-2, .cls-3, .cls-4, .cls-5, .cls-6, .cls-7, .cls-8 {
      stroke-width: 0px;
      }

      .cls-2 {
      fill: url(#Unbenannter_Verlauf_16-2);
      }

      .cls-3 {
      fill: url(#Unbenannter_Verlauf_16-7);
      }

      .cls-4 {
      fill: url(#Unbenannter_Verlauf_16-4);
      }

      .cls-4, .cls-5, .cls-6 {
      opacity: .5;
      }

      .cls-5 {
      fill: url(#Unbenannter_Verlauf_16-5);
      }

      .cls-6, .cls-7 {
      fill: url(#Unbenannter_Verlauf_16);
      }

      .cls-8 {
      fill: url(#Unbenannter_Verlauf_16-3);
      }
    </style>
    <linearGradient id="Unbenannter_Verlauf_16" data-name="Unbenannter Verlauf 16" x1="34.16" y1="191.83" x2="558.86" y2="759.07" gradientUnits="userSpaceOnUse">
      <stop offset="0" stop-color="#242223"/>
      <stop offset="1" stop-color="#666"/>
    </linearGradient>
    <linearGradient id="Unbenannter_Verlauf_16-2" data-name="Unbenannter Verlauf 16" x1="159.17" y1="76.19" x2="683.87" y2="643.43" xlink:href="#Unbenannter_Verlauf_16"/>
    <linearGradient id="Unbenannter_Verlauf_16-3" data-name="Unbenannter Verlauf 16" x1="129.57" y1="103.57" x2="654.27" y2="670.82" xlink:href="#Unbenannter_Verlauf_16"/>
    <linearGradient id="Unbenannter_Verlauf_16-4" data-name="Unbenannter Verlauf 16" x1="159.17" y1="76.19" x2="683.87" y2="643.43" xlink:href="#Unbenannter_Verlauf_16"/>
    <linearGradient id="Unbenannter_Verlauf_16-5" data-name="Unbenannter Verlauf 16" x1="129.57" y1="103.57" x2="654.27" y2="670.82" xlink:href="#Unbenannter_Verlauf_16"/>
    <linearGradient id="Unbenannter_Verlauf_16-6" data-name="Unbenannter Verlauf 16" x1="106.74" y1="124.69" x2="631.44" y2="691.93" xlink:href="#Unbenannter_Verlauf_16"/>
    <linearGradient id="Unbenannter_Verlauf_16-7" data-name="Unbenannter Verlauf 16" x1="106.74" y1="124.69" x2="631.44" y2="691.93" xlink:href="#Unbenannter_Verlauf_16"/>
  </defs>
  <g>
    <path class="cls-7" d="m200.77,316.73l166.69,96.25v191.06c-68.73-1.51-128.69-38.68-162.09-93.74-1.53-2.5-2.99-5.06-4.4-7.65-15.11-27.65-23.71-59.4-23.71-93.15s8.53-65.21,23.52-92.78Z"/>
    <path class="cls-2" d="m538.58,309.08l-166.72,96.26-166.7-96.25c33.19-55.01,92.85-92.25,161.33-94.1.35-.02.69-.02,1.04-.04,1.44-.04,2.89-.05,4.33-.05,1.14,0,2.29.02,3.44.05,69.3,1.18,129.77,38.59,163.29,94.11Z"/>
    <path class="cls-8" d="m566.46,409.5c0,33.17-8.3,64.38-22.92,91.7-.03.07-.07.14-.1.19,0,.02-.02.02-.02.04-.37.72-.76,1.43-1.18,2.13-.02.05-.03.09-.07.14-.39.72-.79,1.44-1.21,2.17-.09.16-.18.33-.28.49-.46.83-.93,1.64-1.43,2.43-.02.04-.03.05-.05.09-33.22,55.84-93.6,93.64-162.93,95.15v-191.06l166.7-96.25c14.99,27.57,23.5,59.19,23.5,92.78Z"/>
    <path class="cls-6" d="m200.77,316.73l166.69,96.25v191.06c-68.73-1.51-128.69-38.68-162.09-93.74-1.53-2.5-2.99-5.06-4.4-7.65-15.11-27.65-23.71-59.4-23.71-93.15s8.53-65.21,23.52-92.78Z"/>
    <path class="cls-4" d="m538.58,309.08l-166.72,96.26-166.7-96.25c33.19-55.01,92.85-92.25,161.33-94.1.35-.02.69-.02,1.04-.04,1.44-.04,2.89-.05,4.33-.05,1.14,0,2.29.02,3.44.05,69.3,1.18,129.77,38.59,163.29,94.11Z"/>
    <path class="cls-5" d="m566.46,409.5c0,33.17-8.3,64.38-22.92,91.7-.03.07-.07.14-.1.19,0,.02-.02.02-.02.04-.37.72-.76,1.43-1.18,2.13-.02.05-.03.09-.07.14-.39.72-.79,1.44-1.21,2.17-.09.16-.18.33-.28.49-.46.83-.93,1.64-1.43,2.43-.02.04-.03.05-.05.09-33.22,55.84-93.6,93.64-162.93,95.15v-191.06l166.7-96.25c14.99,27.57,23.5,59.19,23.5,92.78Z"/>
  </g>
  <path class="cls-1" d="m373.37,820.5c-12.5,0-25-3.13-36.2-9.41L40.32,644.79c-23.14-12.97-37.65-37.51-37.85-64.05L0,245.22c-.2-26.53,13.94-51.29,36.9-64.61L331.26,9.95c22.52-13.08,50.62-13.28,73.34-.54l296.85,166.29c23.17,12.99,37.67,37.53,37.85,64.06l2.48,335.52c.2,26.53-13.94,51.29-36.9,64.61l-294.38,170.65c-11.42,6.63-24.28,9.94-37.14,9.94Zm-4.96-802.89c-9.8,0-19.6,2.53-28.3,7.58L45.74,195.84c-17.5,10.16-28.28,29.03-28.13,49.25l2.47,335.52c.15,20.23,11.21,38.94,28.84,48.82l296.85,166.3c17.32,9.71,38.73,9.55,55.89-.41l294.38-170.65c17.5-10.15,28.28-29.02,28.13-49.24l-2.48-335.53c-.14-20.21-11.19-38.91-28.85-48.81L395.99,24.78c-8.53-4.79-18.06-7.17-27.58-7.17Z"/>
  <path class="cls-3" d="m689.17,268.85c-.19-26.54-14.71-51.08-37.87-64.08l-246.29-137.97c-22.7-12.72-50.8-12.51-73.33.55L87.46,208.94c-22.95,13.3-37.1,38.06-36.9,64.59l2.06,278.12c.18,26.54,14.69,51.08,37.85,64.08l246.29,137.97c11.19,6.27,23.69,9.39,36.18,9.39s25.74-3.31,37.15-9.93l244.22-141.6c22.97-13.3,37.1-38.05,36.9-64.59l-2.04-278.12Zm-21,302.74l-124.62-70.39c-.03.07-.07.14-.1.19,0,.02-.02.02-.02.04-.37.72-.76,1.43-1.18,2.13-.02.05-.03.09-.07.14-.39.74-.79,1.44-1.21,2.17-.09.16-.18.33-.28.49-.46.83-.95,1.64-1.43,2.43-.02.04-.03.05-.05.09l124.61,70.35c-4.69,6.89-10.9,12.79-18.34,17.09l-244.23,141.6c-7.71,4.47-16.29,6.94-24.98,7.45v-141.34c-1.46.05-2.92.07-4.4.07s-2.94-.02-4.4-.07v141.16c-7.66-.74-15.2-3.01-22.11-6.87l-246.27-137.96c-7.75-4.35-14.21-10.39-19.06-17.51l125.34-72.57c-1.53-2.5-2.99-5.06-4.4-7.65l-125.29,72.57c-3.45-7.31-5.39-15.36-5.44-23.69l-2.06-278.12c-.07-10.27,2.68-20.19,7.7-28.8l124.9,72.11c1.39-2.59,2.85-5.13,4.39-7.63l-124.25-71.74c4.24-5.21,9.41-9.71,15.39-13.18l244.23-141.6c8.01-4.63,16.94-7.12,25.96-7.49v139.91c.35-.02.69-.02,1.04-.04,1.44-.04,2.89-.05,4.33-.05,1.14,0,2.29.02,3.44.05V75.39c7.33.85,14.51,3.08,21.12,6.78l246.29,137.97c7.82,4.39,14.34,10.52,19.2,17.74l-123.32,71.2c1.52,2.5,2.98,5.06,4.39,7.65l123.25-71.16c3.38,7.24,5.28,15.2,5.34,23.41l2.04,278.12c.07,8.61-1.87,16.95-5.43,24.5Z"/>
</svg>
