<?xml version="1.0" encoding="UTF-8"?>
<svg id="Ebene_1" data-name="Ebene 1" xmlns="http://www.w3.org/2000/svg" xmlns:xlink="http://www.w3.org/1999/xlink" viewBox="0 0 492.47 233.85">
  <defs>
    <style>
      .cls-1 {
      letter-spacing: 0em;
      }

      .cls-2 {
      letter-spacing: 0em;
      }

      .cls-3 {
      fill: #fff;
      font-size: 11.15px;
      }

      .cls-3, .cls-4 {
      font-family: PirulenRg-BoldItalic, 'PirulenRg BoldItalic';
      font-style: italic;
      font-weight: 700;
      }

      .cls-5, .cls-6, .cls-4 {
      fill: #547099;
      }

      .cls-5, .cls-7, .cls-8 {
      stroke-width: 0px;
      }

      .cls-9 {
      letter-spacing: 0em;
      }

      .cls-10 {
      letter-spacing: .02em;
      }

      .cls-11 {
      stroke: #547099;
      }

      .cls-11, .cls-12, .cls-13 {
      stroke-width: 10px;
      }

      .cls-11, .cls-12, .cls-13, .cls-14 {
      fill: none;
      stroke-miterlimit: 10;
      }

      .cls-6 {
      font-family: PirulenRg-Regular, 'PirulenRg Regular';
      font-size: 61.83px;
      }

      .cls-4 {
      font-size: 12.08px;
      }

      .cls-7 {
      fill: url(#Unbenannter_Verlauf_10);
      opacity: .5;
      }

      .cls-12 {
      stroke: #28285b;
      }

      .cls-13, .cls-14 {
      stroke: #f1f1f1;
      }

      .cls-15 {
      letter-spacing: 0em;
      }

      .cls-14 {
      stroke-width: 5px;
      }

      .cls-8 {
      fill: #f1f1f1;
      }
    </style>
    <radialGradient id="Unbenannter_Verlauf_10" data-name="Unbenannter Verlauf 10" cx="109.82" cy="119" fx="109.82" fy="119" r="51.33" gradientUnits="userSpaceOnUse">
      <stop offset="0" stop-color="#fff"/>
      <stop offset="1" stop-color="#010101"/>
    </radialGradient>
  </defs>
  <line class="cls-14" x1="108.82" y1="26.22" x2="110.16" y2="211.43"/>
  <line class="cls-14" x1="190.56" y1="72.04" x2="28.94" y2="165.59"/>
  <circle class="cls-5" cx="109.82" cy="118.91" r="51.33"/>
  <circle class="cls-7" cx="109.82" cy="119" r="51.33"/>
  <path class="cls-11" d="m204.41,74.2c-.04-6.18-3.4-11.86-8.79-14.89L117.32,15.45c-5.3-2.97-11.78-2.93-17.04.13L22.64,60.59c-5.35,3.1-8.62,8.83-8.58,15.02l.65,88.49c.05,6.18,3.41,11.87,8.79,14.89l78.3,43.86c5.31,2.97,11.78,2.93,17.04-.13l77.64-45.01c5.35-3.1,8.62-8.83,8.58-15.02l-.66-88.49Zm-21.26,96.03l-64.41,37.35c-5.26,3.05-11.74,3.09-17.04.13l-64.96-36.39c-5.39-3.02-8.75-8.71-8.79-14.89l-.54-73.35c-.05-6.18,3.23-11.91,8.58-15.01L100.39,30.72c5.26-3.05,11.74-3.09,17.04-.13l64.96,36.39c5.39,3.02,8.75,8.71,8.8,14.89l.54,73.35c.05,6.18-3.23,11.91-8.58,15.01Z"/>
  <path class="cls-12" d="m191.73,155.22c.05,6.18-3.23,11.91-8.58,15.01l-64.41,37.35c-5.26,3.05-11.74,3.09-17.04.13l-64.96-36.39c-5.39-3.02-8.75-8.71-8.79-14.89l-.54-73.35c-.05-6.18,3.23-11.91,8.58-15.01L100.39,30.72c5.26-3.05,11.74-3.09,17.04-.13l64.96,36.39c5.39,3.02,8.75,8.71,8.8,14.89l.54,73.35Z"/>
  <path class="cls-13" d="m191.73,155.22c.05,6.18-3.23,11.91-8.58,15.01l-64.41,37.35c-5.26,3.05-11.74,3.09-17.04.13l-64.96-36.39c-5.39-3.02-8.75-8.71-8.79-14.89l-.54-73.35c-.05-6.18,3.23-11.91,8.58-15.01L100.39,30.72c5.26-3.05,11.74-3.09,17.04-.13l64.96,36.39c5.39,3.02,8.75,8.71,8.8,14.89l.54,73.35Z"/>
  <line class="cls-14" x1="191.41" y1="164.98" x2="154.56" y2="144.16"/>
  <text class="cls-6" transform="translate(250.04 168.57)"><tspan x="0" y="0">sha</tspan><tspan class="cls-2" x="88.61" y="0">r</tspan><tspan x="108.21" y="0">e</tspan></text>
  <text class="cls-6" transform="translate(248.41 108.89)"><tspan x="0" y="0">xp</tspan></text>
  <line class="cls-14" x1="189.51" y1="72.76" x2="109.82" y2="118.83"/>
  <line class="cls-14" x1="110.08" y1="118.83" x2="110.05" y2="212.19"/>
  <line class="cls-14" x1="110.08" y1="118.83" x2="27.65" y2="74.05"/>
  <path class="cls-8" d="m110.09,119.83c1.93,0,1.93-3,0-3s-1.93,3,0,3h0Z"/>
  <path class="cls-8" d="m108.25,118.38l.17.7c.05.2.14.37.27.51.11.16.25.29.42.39.17.11.36.17.56.18.2.04.4.04.6-.03l.36-.15c.23-.13.4-.31.54-.54l.15-.36c.07-.27.07-.53,0-.8l-.17-.7c-.05-.2-.14-.37-.27-.51-.11-.16-.25-.29-.42-.39-.17-.11-.36-.17-.56-.18-.2-.04-.4-.04-.6.03l-.36.15c-.23.13-.4.31-.54.54l-.15.36c-.07.27-.07.53,0,.8h0Z"/>
  <text class="cls-3" transform="translate(368.3 186.63)"><tspan x="0" y="0">e</tspan><tspan class="cls-9" x="5.59" y="0">v</tspan><tspan x="10.84" y="0">e</tspan><tspan class="cls-10" x="16.42" y="0">r</tspan><tspan x="20.35" y="0">ything is e</tspan></text>
  <text class="cls-4" transform="translate(436.15 188.03) scale(1 1.25)"><tspan x="0" y="0">X</tspan></text>
  <text class="cls-3" transform="translate(443.04 186.63)"><tspan x="0" y="0">pe</tspan><tspan class="cls-15" x="11.93" y="0">r</tspan><tspan x="15.62" y="0">ien</tspan><tspan class="cls-1" x="30" y="0">c</tspan><tspan x="34.93" y="0">e</tspan></text>
</svg>
